{
	"asset":{
		"generator":"Khronos glTF Blender I/O v4.5.48",
		"version":"2.0"
	},
	"scene":0,
	"scenes":[
		{
			"name":"Scene",
			"nodes":[
				0,
				1,
				2,
				3,
				4,
				5,
				6,
				7,
				8,
				9,
				10,
				11,
				12,
				13,
				14,
				15,
				16,
				17,
				18,
				19,
				20,
				21,
				22,
				23,
				24,
				25,
				26,
				27,
				28,
				29,
				30,
				31,
				32,
				33,
				34,
				35,
				36,
				37,
				38,
				39,
				40,
				41
			]
		}
	],
	"nodes":[
		{
			"mesh":0,
			"name":"\u0413\u0410\u041a",
			"rotation":[
				0,
				0.7071068286895752,
				0,
				0.7071068286895752
			],
			"scale":[
				1,
				1,
				1.9741235971450806
			]
		},
		{
			"mesh":1,
			"name":"\u041f\u043b\u043e\u0449\u0430\u0434\u043a\u0430",
			"scale":[
				40,
				40,
				40
			]
		},
		{
			"mesh":2,
			"name":"\u0417\u0434\u0430\u043d\u0438\u0435_1",
			"translation":[
				-28.335329055786133,
				0,
				10.961641311645508
			]
		},
		{
			"mesh":3,
			"name":"\u041a\u043e\u0440\u043f\u0443\u0441_10",
			"translation":[
				-60.3416633605957,
				0,
				24.439016342163086
			]
		},
		{
			"mesh":4,
			"name":"\u0417\u0434\u0430\u043d\u0438\u0435_4",
			"translation":[
				-59.348045349121094,
				0,
				6.347761154174805
			]
		},
		{
			"mesh":5,
			"name":"\u041a\u043e\u0440\u043f\u0443\u0441_16",
			"scale":[
				5.55804967880249,
				5.55804967880249,
				5.55804967880249
			],
			"translation":[
				-58.33898162841797,
				0,
				-8.248005867004395
			]
		},
		{
			"mesh":6,
			"name":"\u041a\u043e\u0440\u043f\u0443\u0441_3_\u0412\u0445\u043e\u0434",
			"scale":[
				4.695207595825195,
				1,
				3.372742176055908
			],
			"translation":[
				12.023113250732422,
				0,
				56.97154235839844
			]
		},
		{
			"mesh":7,
			"name":"\u041a\u043e\u0440\u043f\u0443\u0441_3",
			"scale":[
				2.896559476852417,
				2.896559476852417,
				2.896559476852417
			],
			"translation":[
				10.771743774414062,
				0,
				66.68840026855469
			]
		},
		{
			"mesh":8,
			"name":"\u0414\u041a",
			"scale":[
				9.632989883422852,
				9.632989883422852,
				10.302979469299316
			],
			"translation":[
				-11.975610733032227,
				0,
				102.45494842529297
			]
		},
		{
			"mesh":9,
			"name":"\u0417\u0434\u0430\u043d\u0438\u0435_2",
			"scale":[
				3.3541462421417236,
				3.3541462421417236,
				3.3541462421417236
			],
			"translation":[
				-12.45480728149414,
				0,
				76.20132446289062
			]
		},
		{
			"mesh":10,
			"name":"\u0417\u0434\u0430\u043d\u0438\u0435_3",
			"rotation":[
				0,
				0.7071068286895752,
				0,
				0.7071068286895752
			],
			"scale":[
				3.3541462421417236,
				3.3541462421417236,
				3.3541462421417236
			],
			"translation":[
				42.58370590209961,
				0,
				88.76958465576172
			]
		},
		{
			"mesh":11,
			"name":"\u041a\u043e\u0440\u043f\u0443\u0441_57\u0413",
			"scale":[
				2.7236223220825195,
				2.7236223220825195,
				2.7236223220825195
			],
			"translation":[
				66.35236358642578,
				0,
				86.2847900390625
			]
		},
		{
			"mesh":12,
			"name":"\u041a\u043e\u0440\u043f\u0443\u0441_9",
			"scale":[
				3.487262725830078,
				3.507262706756592,
				3.487262725830078
			],
			"translation":[
				-55.72214889526367,
				0,
				49.07954025268555
			]
		},
		{
			"mesh":13,
			"name":"\u041a\u043e\u0440\u043f\u0443\u0441_35",
			"scale":[
				5.450614929199219,
				5.450614929199219,
				5.450614929199219
			],
			"translation":[
				-61.25853729248047,
				-3.814697265625e-06,
				72.92874145507812
			]
		},
		{
			"mesh":14,
			"name":"\u041a\u043e\u0440\u043f\u0443\u0441_24",
			"scale":[
				7.345019817352295,
				7.345019817352295,
				7.345019817352295
			],
			"translation":[
				-59.71568298339844,
				0,
				-32.75757598876953
			]
		},
		{
			"mesh":15,
			"name":"\u0413\u0423\u041a-\u0412",
			"translation":[
				54.12138366699219,
				0,
				143.6466827392578
			]
		},
		{
			"mesh":16,
			"name":"Sign_4",
			"rotation":[
				0.7071068286895752,
				0,
				0,
				0.7071067690849304
			],
			"scale":[
				3.4064080715179443,
				1.6883058547973633,
				3.4064080715179443
			],
			"translation":[
				-45.67210006713867,
				7,
				97.72021484375
			]
		},
		{
			"mesh":17,
			"name":"Sign_1",
			"rotation":[
				0.653281569480896,
				0.27059805393218994,
				-0.27059808373451233,
				0.6532814502716064
			],
			"scale":[
				3.4064080715179443,
				1.6883058547973633,
				3.4064080715179443
			],
			"translation":[
				12.19762134552002,
				7,
				17.024885177612305
			]
		},
		{
			"mesh":18,
			"name":"Sign_2",
			"rotation":[
				0.7071068286895752,
				0,
				0,
				0.7071067690849304
			],
			"scale":[
				3.4064080715179443,
				1.6883058547973633,
				3.4064080715179443
			],
			"translation":[
				-45.14047622680664,
				7,
				-48.72038650512695
			]
		},
		{
			"mesh":19,
			"name":"Sign_3",
			"rotation":[
				0.5,
				0.5,
				-0.5,
				0.4999999701976776
			],
			"scale":[
				3.4064080715179443,
				1.6883058547973633,
				3.4064080715179443
			],
			"translation":[
				-2.961029052734375,
				7,
				140.6664276123047
			]
		},
		{
			"mesh":20,
			"name":"\u0413\u0423\u041a-\u0410\u0411",
			"translation":[
				61.814300537109375,
				0,
				112.11498260498047
			]
		},
		{
			"mesh":21,
			"name":"\u0427\u0435\u0440\u0435\u043f\u0430\u0445\u0430",
			"rotation":[
				0,
				0.3826834559440613,
				0,
				0.9238795638084412
			],
			"translation":[
				90.29800415039062,
				0,
				131.8516845703125
			]
		},
		{
			"mesh":22,
			"name":"\u041a\u043e\u0440\u043f\u0443\u0441_1",
			"translation":[
				-107.06312561035156,
				0,
				11.914162635803223
			]
		},
		{
			"mesh":23,
			"name":"\u0417\u0434\u0430\u043d\u0438\u0435_5",
			"translation":[
				-75.4494857788086,
				0,
				-10.407167434692383
			]
		},
		{
			"mesh":24,
			"name":"\u041a\u043e\u0440\u043f\u0443\u0441_11",
			"translation":[
				-150.3577117919922,
				0,
				-2.415742874145508
			]
		},
		{
			"mesh":25,
			"name":"\u041a\u043e\u0440\u043f\u0443\u0441_7",
			"translation":[
				100.71597290039062,
				0,
				-51.29306411743164
			]
		},
		{
			"mesh":26,
			"name":"\u0421\u0442\u043e\u043b\u043e\u0432\u0430\u044f",
			"translation":[
				41.6491584777832,
				0,
				55.121150970458984
			]
		},
		{
			"mesh":27,
			"name":"\u0417\u0434\u0430\u043d\u0438\u0435_6",
			"translation":[
				31.93741226196289,
				0,
				53.42866134643555
			]
		},
		{
			"mesh":28,
			"name":"\u041a\u041f\u041f_3",
			"translation":[
				-51.51041030883789,
				0,
				90.20271301269531
			]
		},
		{
			"mesh":29,
			"name":"\u041a\u041f\u041f_4",
			"translation":[
				-44.16632080078125,
				0,
				-39.63203430175781
			]
		},
		{
			"mesh":30,
			"name":"Sign_5",
			"rotation":[
				0.653281569480896,
				0.27059805393218994,
				-0.27059808373451233,
				0.6532814502716064
			],
			"scale":[
				3.4064080715179443,
				1.6883058547973633,
				3.4064080715179443
			],
			"translation":[
				206.3953399658203,
				7,
				80.42414093017578
			]
		},
		{
			"mesh":31,
			"name":"\u041a\u043e\u0440\u043f\u0443\u0441_2\u0412",
			"translation":[
				87.00599670410156,
				0,
				21.905954360961914
			]
		},
		{
			"mesh":32,
			"name":"\u041a\u043e\u0440\u043f\u0443\u0441_2\u0410",
			"translation":[
				55.31632995605469,
				0,
				-5.094357013702393
			]
		},
		{
			"mesh":33,
			"name":"\u0417\u0434\u0430\u043d\u0438\u0435_7",
			"translation":[
				169.72647094726562,
				0,
				1.2114334106445312
			]
		},
		{
			"mesh":34,
			"name":"\u0417\u0434\u0430\u043d\u0438\u0435_8",
			"translation":[
				168.9480743408203,
				0,
				26.04038429260254
			]
		},
		{
			"mesh":35,
			"name":"\u041a\u043e\u0440\u043f\u0443\u0441_21",
			"rotation":[
				0,
				0.3826834559440613,
				0,
				0.9238795638084412
			],
			"translation":[
				151.59246826171875,
				0,
				64.05480194091797
			]
		},
		{
			"mesh":36,
			"name":"\u041a\u041f\u041f_5",
			"rotation":[
				0,
				0.3826834559440613,
				0,
				0.9238795638084412
			],
			"translation":[
				193.15023803710938,
				0,
				79.50794982910156
			]
		},
		{
			"mesh":37,
			"name":"\u041a\u043e\u0440\u043f\u0443\u0441_5",
			"rotation":[
				0,
				0.3826834559440613,
				0,
				0.9238795638084412
			],
			"translation":[
				225.19210815429688,
				-7.62939453125e-06,
				46.540916442871094
			]
		},
		{
			"mesh":38,
			"name":"\u0417\u0434\u0430\u043d\u0438\u0435_10",
			"translation":[
				75.64661407470703,
				0,
				65.81988525390625
			]
		},
		{
			"mesh":39,
			"name":"\u0417\u0434\u0430\u043d\u0438\u0435_11",
			"translation":[
				76.57994079589844,
				0,
				51.30305862426758
			]
		},
		{
			"mesh":40,
			"name":"\u0417\u0434\u0430\u043d\u0438\u0435_9",
			"translation":[
				70.41585540771484,
				0,
				-18.596704483032227
			]
		},
		{
			"mesh":41,
			"name":"\u041a\u043e\u0440\u043f\u0443\u0441_4",
			"translation":[
				99.931396484375,
				1,
				65.20977783203125
			]
		}
	],
	"materials":[
		{
			"doubleSided":true,
			"name":"Material.002",
			"pbrMetallicRoughness":{
				"baseColorFactor":[
					0.27397239208221436,
					0.27397239208221436,
					0.27397239208221436,
					1
				],
				"metallicFactor":0,
				"roughnessFactor":0.5
			}
		},
		{
			"doubleSided":true,
			"name":"Material.001",
			"pbrMetallicRoughness":{
				"baseColorFactor":[
					0,
					0.21468737721443176,
					0.8000785112380981,
					1
				],
				"metallicFactor":0,
				"roughnessFactor":0.5
			}
		}
	],
	"meshes":[
		{
			"name":"Cube.002",
			"primitives":[
				{
					"attributes":{
						"POSITION":0,
						"NORMAL":1,
						"TEXCOORD_0":2
					},
					"indices":3
				}
			]
		},
		{
			"name":"Plane",
			"primitives":[
				{
					"attributes":{
						"POSITION":4,
						"NORMAL":5,
						"TEXCOORD_0":6
					},
					"indices":7,
					"material":0
				}
			]
		},
		{
			"name":"Cube.003",
			"primitives":[
				{
					"attributes":{
						"POSITION":8,
						"NORMAL":9,
						"TEXCOORD_0":10
					},
					"indices":11
				}
			]
		},
		{
			"name":"Cube.004",
			"primitives":[
				{
					"attributes":{
						"POSITION":12,
						"NORMAL":13,
						"TEXCOORD_0":14
					},
					"indices":11
				}
			]
		},
		{
			"name":"Cube.005",
			"primitives":[
				{
					"attributes":{
						"POSITION":15,
						"NORMAL":16,
						"TEXCOORD_0":17
					},
					"indices":18
				}
			]
		},
		{
			"name":"Cube.006",
			"primitives":[
				{
					"attributes":{
						"POSITION":19,
						"NORMAL":20,
						"TEXCOORD_0":21
					},
					"indices":22
				}
			]
		},
		{
			"name":"Cube.007",
			"primitives":[
				{
					"attributes":{
						"POSITION":23,
						"NORMAL":24,
						"TEXCOORD_0":25
					},
					"indices":11
				}
			]
		},
		{
			"name":"Cube.008",
			"primitives":[
				{
					"attributes":{
						"POSITION":26,
						"NORMAL":27,
						"TEXCOORD_0":28
					},
					"indices":29
				}
			]
		},
		{
			"name":"Cube.009",
			"primitives":[
				{
					"attributes":{
						"POSITION":30,
						"NORMAL":31,
						"TEXCOORD_0":32
					},
					"indices":33
				}
			]
		},
		{
			"name":"Cube.010",
			"primitives":[
				{
					"attributes":{
						"POSITION":34,
						"NORMAL":35,
						"TEXCOORD_0":36
					},
					"indices":11
				}
			]
		},
		{
			"name":"Cube.011",
			"primitives":[
				{
					"attributes":{
						"POSITION":37,
						"NORMAL":38,
						"TEXCOORD_0":39
					},
					"indices":11
				}
			]
		},
		{
			"name":"Cube.012",
			"primitives":[
				{
					"attributes":{
						"POSITION":40,
						"NORMAL":41,
						"TEXCOORD_0":42
					},
					"indices":43
				}
			]
		},
		{
			"name":"Cube.013",
			"primitives":[
				{
					"attributes":{
						"POSITION":44,
						"NORMAL":45,
						"TEXCOORD_0":46
					},
					"indices":11
				}
			]
		},
		{
			"name":"Cube.014",
			"primitives":[
				{
					"attributes":{
						"POSITION":47,
						"NORMAL":48,
						"TEXCOORD_0":49
					},
					"indices":50
				}
			]
		},
		{
			"name":"Cube.015",
			"primitives":[
				{
					"attributes":{
						"POSITION":51,
						"NORMAL":52,
						"TEXCOORD_0":53
					},
					"indices":54
				}
			]
		},
		{
			"name":"Cube",
			"primitives":[
				{
					"attributes":{
						"POSITION":55,
						"NORMAL":56,
						"TEXCOORD_0":57
					},
					"indices":58
				}
			]
		},
		{
			"name":"Circle",
			"primitives":[
				{
					"attributes":{
						"POSITION":59,
						"NORMAL":60,
						"TEXCOORD_0":61
					},
					"indices":62,
					"material":1
				}
			]
		},
		{
			"name":"Circle.001",
			"primitives":[
				{
					"attributes":{
						"POSITION":63,
						"NORMAL":64,
						"TEXCOORD_0":65
					},
					"indices":62,
					"material":1
				}
			]
		},
		{
			"name":"Circle.002",
			"primitives":[
				{
					"attributes":{
						"POSITION":66,
						"NORMAL":67,
						"TEXCOORD_0":68
					},
					"indices":62,
					"material":1
				}
			]
		},
		{
			"name":"Circle.003",
			"primitives":[
				{
					"attributes":{
						"POSITION":69,
						"NORMAL":70,
						"TEXCOORD_0":71
					},
					"indices":62,
					"material":1
				}
			]
		},
		{
			"name":"Cube.016",
			"primitives":[
				{
					"attributes":{
						"POSITION":72,
						"NORMAL":73,
						"TEXCOORD_0":74
					},
					"indices":75
				}
			]
		},
		{
			"name":"Cube.017",
			"primitives":[
				{
					"attributes":{
						"POSITION":76,
						"NORMAL":77,
						"TEXCOORD_0":78
					},
					"indices":79
				}
			]
		},
		{
			"name":"Cube.018",
			"primitives":[
				{
					"attributes":{
						"POSITION":80,
						"NORMAL":81,
						"TEXCOORD_0":82
					},
					"indices":83
				}
			]
		},
		{
			"name":"Cube.019",
			"primitives":[
				{
					"attributes":{
						"POSITION":84,
						"NORMAL":85,
						"TEXCOORD_0":86
					},
					"indices":87
				}
			]
		},
		{
			"name":"Cube.020",
			"primitives":[
				{
					"attributes":{
						"POSITION":88,
						"NORMAL":89,
						"TEXCOORD_0":90
					},
					"indices":91
				}
			]
		},
		{
			"name":"Cube.021",
			"primitives":[
				{
					"attributes":{
						"POSITION":92,
						"NORMAL":93,
						"TEXCOORD_0":94
					},
					"indices":95
				}
			]
		},
		{
			"name":"Cube.022",
			"primitives":[
				{
					"attributes":{
						"POSITION":96,
						"NORMAL":97,
						"TEXCOORD_0":98
					},
					"indices":11
				}
			]
		},
		{
			"name":"Cube.023",
			"primitives":[
				{
					"attributes":{
						"POSITION":99,
						"NORMAL":100,
						"TEXCOORD_0":101
					},
					"indices":11
				}
			]
		},
		{
			"name":"Cube.024",
			"primitives":[
				{
					"attributes":{
						"POSITION":102,
						"NORMAL":103,
						"TEXCOORD_0":104
					},
					"indices":11
				}
			]
		},
		{
			"name":"Cube.025",
			"primitives":[
				{
					"attributes":{
						"POSITION":105,
						"NORMAL":106,
						"TEXCOORD_0":107
					},
					"indices":11
				}
			]
		},
		{
			"name":"Circle.004",
			"primitives":[
				{
					"attributes":{
						"POSITION":108,
						"NORMAL":109,
						"TEXCOORD_0":110
					},
					"indices":62,
					"material":1
				}
			]
		},
		{
			"name":"Cube.001",
			"primitives":[
				{
					"attributes":{
						"POSITION":111,
						"NORMAL":112,
						"TEXCOORD_0":113
					},
					"indices":114
				}
			]
		},
		{
			"name":"Cube.026",
			"primitives":[
				{
					"attributes":{
						"POSITION":115,
						"NORMAL":116,
						"TEXCOORD_0":117
					},
					"indices":118
				}
			]
		},
		{
			"name":"Cube.027",
			"primitives":[
				{
					"attributes":{
						"POSITION":119,
						"NORMAL":120,
						"TEXCOORD_0":121
					},
					"indices":11
				}
			]
		},
		{
			"name":"Cube.028",
			"primitives":[
				{
					"attributes":{
						"POSITION":122,
						"NORMAL":123,
						"TEXCOORD_0":124
					},
					"indices":11
				}
			]
		},
		{
			"name":"Cube.029",
			"primitives":[
				{
					"attributes":{
						"POSITION":125,
						"NORMAL":126,
						"TEXCOORD_0":127
					},
					"indices":128
				}
			]
		},
		{
			"name":"Cube.030",
			"primitives":[
				{
					"attributes":{
						"POSITION":129,
						"NORMAL":130,
						"TEXCOORD_0":131
					},
					"indices":11
				}
			]
		},
		{
			"name":"Cube.031",
			"primitives":[
				{
					"attributes":{
						"POSITION":132,
						"NORMAL":133,
						"TEXCOORD_0":134
					},
					"indices":135
				}
			]
		},
		{
			"name":"Cube.032",
			"primitives":[
				{
					"attributes":{
						"POSITION":136,
						"NORMAL":137,
						"TEXCOORD_0":138
					},
					"indices":11
				}
			]
		},
		{
			"name":"Cube.033",
			"primitives":[
				{
					"attributes":{
						"POSITION":139,
						"NORMAL":140,
						"TEXCOORD_0":141
					},
					"indices":11
				}
			]
		},
		{
			"name":"Cube.034",
			"primitives":[
				{
					"attributes":{
						"POSITION":142,
						"NORMAL":143,
						"TEXCOORD_0":144
					},
					"indices":145
				}
			]
		},
		{
			"name":"Cube.035",
			"primitives":[
				{
					"attributes":{
						"POSITION":146,
						"NORMAL":147,
						"TEXCOORD_0":148
					},
					"indices":149
				}
			]
		}
	],
	"accessors":[
		{
			"bufferView":0,
			"componentType":5126,
			"count":131,
			"max":[
				38.165138244628906,
				22.9999942779541,
				18.57129669189453
			],
			"min":[
				14.788703918457031,
				0,
				-18.349123001098633
			],
			"type":"VEC3"
		},
		{
			"bufferView":1,
			"componentType":5126,
			"count":131,
			"type":"VEC3"
		},
		{
			"bufferView":2,
			"componentType":5126,
			"count":131,
			"type":"VEC2"
		},
		{
			"bufferView":3,
			"componentType":5123,
			"count":228,
			"type":"SCALAR"
		},
		{
			"bufferView":4,
			"componentType":5126,
			"count":79,
			"max":[
				6.45237398147583,
				0.11982285231351852,
				4.869418621063232
			],
			"min":[
				-4.760308742523193,
				0,
				-1.3447811603546143
			],
			"type":"VEC3"
		},
		{
			"bufferView":5,
			"componentType":5126,
			"count":79,
			"type":"VEC3"
		},
		{
			"bufferView":6,
			"componentType":5126,
			"count":79,
			"type":"VEC2"
		},
		{
			"bufferView":7,
			"componentType":5123,
			"count":141,
			"type":"SCALAR"
		},
		{
			"bufferView":8,
			"componentType":5126,
			"count":24,
			"max":[
				3.5624465942382812,
				4.130319595336914,
				1.888589859008789
			],
			"min":[
				-3.769092559814453,
				0,
				-2.2812232971191406
			],
			"type":"VEC3"
		},
		{
			"bufferView":9,
			"componentType":5126,
			"count":24,
			"type":"VEC3"
		},
		{
			"bufferView":10,
			"componentType":5126,
			"count":24,
			"type":"VEC2"
		},
		{
			"bufferView":11,
			"componentType":5123,
			"count":36,
			"type":"SCALAR"
		},
		{
			"bufferView":12,
			"componentType":5126,
			"count":24,
			"max":[
				9.54666519165039,
				20,
				11.870016098022461
			],
			"min":[
				-9.463672637939453,
				0,
				-11.439016342163086
			],
			"type":"VEC3"
		},
		{
			"bufferView":13,
			"componentType":5126,
			"count":24,
			"type":"VEC3"
		},
		{
			"bufferView":14,
			"componentType":5126,
			"count":24,
			"type":"VEC2"
		},
		{
			"bufferView":15,
			"componentType":5126,
			"count":48,
			"max":[
				5.243511199951172,
				17.201139450073242,
				6.652238845825195
			],
			"min":[
				-5.1884002685546875,
				0,
				-6.347761154174805
			],
			"type":"VEC3"
		},
		{
			"bufferView":16,
			"componentType":5126,
			"count":48,
			"type":"VEC3"
		},
		{
			"bufferView":17,
			"componentType":5126,
			"count":48,
			"type":"VEC2"
		},
		{
			"bufferView":18,
			"componentType":5123,
			"count":84,
			"type":"SCALAR"
		},
		{
			"bufferView":19,
			"componentType":5126,
			"count":22,
			"max":[
				1,
				1.4612245559692383,
				1.483974814414978
			],
			"min":[
				-0.8936128616333008,
				0,
				-1.7872639894485474
			],
			"type":"VEC3"
		},
		{
			"bufferView":20,
			"componentType":5126,
			"count":22,
			"type":"VEC3"
		},
		{
			"bufferView":21,
			"componentType":5126,
			"count":22,
			"type":"VEC2"
		},
		{
			"bufferView":22,
			"componentType":5123,
			"count":60,
			"type":"SCALAR"
		},
		{
			"bufferView":23,
			"componentType":5126,
			"count":24,
			"max":[
				1.000000238418579,
				7.27703857421875,
				1.194417953491211
			],
			"min":[
				-1,
				0,
				-1.0292930603027344
			],
			"type":"VEC3"
		},
		{
			"bufferView":24,
			"componentType":5126,
			"count":24,
			"type":"VEC3"
		},
		{
			"bufferView":25,
			"componentType":5126,
			"count":24,
			"type":"VEC2"
		},
		{
			"bufferView":26,
			"componentType":5126,
			"count":104,
			"max":[
				17.340662002563477,
				7.940454959869385,
				9.083741188049316
			],
			"min":[
				-16.181379318237305,
				0,
				-6.993845462799072
			],
			"type":"VEC3"
		},
		{
			"bufferView":27,
			"componentType":5126,
			"count":104,
			"type":"VEC3"
		},
		{
			"bufferView":28,
			"componentType":5126,
			"count":104,
			"type":"VEC2"
		},
		{
			"bufferView":29,
			"componentType":5123,
			"count":192,
			"type":"SCALAR"
		},
		{
			"bufferView":30,
			"componentType":5126,
			"count":158,
			"max":[
				2.9627883434295654,
				2.7495880126953125,
				1
			],
			"min":[
				-2.5883045196533203,
				0,
				-2.179462194442749
			],
			"type":"VEC3"
		},
		{
			"bufferView":31,
			"componentType":5126,
			"count":158,
			"type":"VEC3"
		},
		{
			"bufferView":32,
			"componentType":5126,
			"count":158,
			"type":"VEC2"
		},
		{
			"bufferView":33,
			"componentType":5123,
			"count":342,
			"type":"SCALAR"
		},
		{
			"bufferView":34,
			"componentType":5126,
			"count":24,
			"max":[
				2.9650919437408447,
				2,
				1
			],
			"min":[
				-1.620002031326294,
				0,
				-1
			],
			"type":"VEC3"
		},
		{
			"bufferView":35,
			"componentType":5126,
			"count":24,
			"type":"VEC3"
		},
		{
			"bufferView":36,
			"componentType":5126,
			"count":24,
			"type":"VEC2"
		},
		{
			"bufferView":37,
			"componentType":5126,
			"count":24,
			"max":[
				2.9650919437408447,
				2,
				1
			],
			"min":[
				-1.620002031326294,
				0,
				-1
			],
			"type":"VEC3"
		},
		{
			"bufferView":38,
			"componentType":5126,
			"count":24,
			"type":"VEC3"
		},
		{
			"bufferView":39,
			"componentType":5126,
			"count":24,
			"type":"VEC2"
		},
		{
			"bufferView":40,
			"componentType":5126,
			"count":56,
			"max":[
				7.110471248626709,
				8.444637298583984,
				1.960860013961792
			],
			"min":[
				-1.9651641845703125,
				0,
				-1.5254703760147095
			],
			"type":"VEC3"
		},
		{
			"bufferView":41,
			"componentType":5126,
			"count":56,
			"type":"VEC3"
		},
		{
			"bufferView":42,
			"componentType":5126,
			"count":56,
			"type":"VEC2"
		},
		{
			"bufferView":43,
			"componentType":5123,
			"count":108,
			"type":"SCALAR"
		},
		{
			"bufferView":44,
			"componentType":5126,
			"count":24,
			"max":[
				1,
				5.735157489776611,
				1
			],
			"min":[
				-5.113738536834717,
				0,
				-1
			],
			"type":"VEC3"
		},
		{
			"bufferView":45,
			"componentType":5126,
			"count":24,
			"type":"VEC3"
		},
		{
			"bufferView":46,
			"componentType":5126,
			"count":24,
			"type":"VEC2"
		},
		{
			"bufferView":47,
			"componentType":5126,
			"count":52,
			"max":[
				1.541234016418457,
				2,
				1.5141730308532715
			],
			"min":[
				-1.3427815437316895,
				0,
				-2.5064353942871094
			],
			"type":"VEC3"
		},
		{
			"bufferView":48,
			"componentType":5126,
			"count":52,
			"type":"VEC3"
		},
		{
			"bufferView":49,
			"componentType":5126,
			"count":52,
			"type":"VEC2"
		},
		{
			"bufferView":50,
			"componentType":5123,
			"count":102,
			"type":"SCALAR"
		},
		{
			"bufferView":51,
			"componentType":5126,
			"count":623,
			"max":[
				1.0504651069641113,
				6.1265997886657715,
				12.764781951904297
			],
			"min":[
				-17.522396087646484,
				0,
				-1.9914121627807617
			],
			"type":"VEC3"
		},
		{
			"bufferView":52,
			"componentType":5126,
			"count":623,
			"type":"VEC3"
		},
		{
			"bufferView":53,
			"componentType":5126,
			"count":623,
			"type":"VEC2"
		},
		{
			"bufferView":54,
			"componentType":5123,
			"count":1446,
			"type":"SCALAR"
		},
		{
			"bufferView":55,
			"componentType":5126,
			"count":72,
			"max":[
				20.499893188476562,
				28.298236846923828,
				10.332550048828125
			],
			"min":[
				-13.121383666992188,
				0,
				-23.646682739257812
			],
			"type":"VEC3"
		},
		{
			"bufferView":56,
			"componentType":5126,
			"count":72,
			"type":"VEC3"
		},
		{
			"bufferView":57,
			"componentType":5126,
			"count":72,
			"type":"VEC2"
		},
		{
			"bufferView":58,
			"componentType":5123,
			"count":138,
			"type":"SCALAR"
		},
		{
			"bufferView":59,
			"componentType":5126,
			"count":69,
			"max":[
				0.9809850454330444,
				0.3751351237297058,
				1.4587863683700562
			],
			"min":[
				-0.9809879660606384,
				-0.3751351237297058,
				-1.075656771659851
			],
			"type":"VEC3"
		},
		{
			"bufferView":60,
			"componentType":5126,
			"count":69,
			"type":"VEC3"
		},
		{
			"bufferView":61,
			"componentType":5126,
			"count":69,
			"type":"VEC2"
		},
		{
			"bufferView":62,
			"componentType":5123,
			"count":414,
			"type":"SCALAR"
		},
		{
			"bufferView":63,
			"componentType":5126,
			"count":69,
			"max":[
				0.9809850454330444,
				0.3751351237297058,
				1.4587863683700562
			],
			"min":[
				-0.9809879660606384,
				-0.3751351237297058,
				-1.075656771659851
			],
			"type":"VEC3"
		},
		{
			"bufferView":64,
			"componentType":5126,
			"count":69,
			"type":"VEC3"
		},
		{
			"bufferView":65,
			"componentType":5126,
			"count":69,
			"type":"VEC2"
		},
		{
			"bufferView":66,
			"componentType":5126,
			"count":69,
			"max":[
				0.9809850454330444,
				0.3751351237297058,
				1.4587863683700562
			],
			"min":[
				-0.9809879660606384,
				-0.3751351237297058,
				-1.075656771659851
			],
			"type":"VEC3"
		},
		{
			"bufferView":67,
			"componentType":5126,
			"count":69,
			"type":"VEC3"
		},
		{
			"bufferView":68,
			"componentType":5126,
			"count":69,
			"type":"VEC2"
		},
		{
			"bufferView":69,
			"componentType":5126,
			"count":69,
			"max":[
				0.9809850454330444,
				0.3751351237297058,
				1.4587863683700562
			],
			"min":[
				-0.9809879660606384,
				-0.3751351237297058,
				-1.075656771659851
			],
			"type":"VEC3"
		},
		{
			"bufferView":70,
			"componentType":5126,
			"count":69,
			"type":"VEC3"
		},
		{
			"bufferView":71,
			"componentType":5126,
			"count":69,
			"type":"VEC2"
		},
		{
			"bufferView":72,
			"componentType":5126,
			"count":200,
			"max":[
				48.185699462890625,
				25,
				70.88501739501953
			],
			"min":[
				-55.93890380859375,
				0,
				-21.114980697631836
			],
			"type":"VEC3"
		},
		{
			"bufferView":73,
			"componentType":5126,
			"count":200,
			"type":"VEC3"
		},
		{
			"bufferView":74,
			"componentType":5126,
			"count":200,
			"type":"VEC2"
		},
		{
			"bufferView":75,
			"componentType":5123,
			"count":438,
			"type":"SCALAR"
		},
		{
			"bufferView":76,
			"componentType":5126,
			"count":72,
			"max":[
				11.018131256103516,
				12.135727882385254,
				4.604501247406006
			],
			"min":[
				-7.878382682800293,
				0,
				-9.630790710449219
			],
			"type":"VEC3"
		},
		{
			"bufferView":77,
			"componentType":5126,
			"count":72,
			"type":"VEC3"
		},
		{
			"bufferView":78,
			"componentType":5126,
			"count":72,
			"type":"VEC2"
		},
		{
			"bufferView":79,
			"componentType":5123,
			"count":246,
			"type":"SCALAR"
		},
		{
			"bufferView":80,
			"componentType":5126,
			"count":135,
			"max":[
				29.237884521484375,
				13,
				26.258729934692383
			],
			"min":[
				-19.64984130859375,
				0,
				-30.56174087524414
			],
			"type":"VEC3"
		},
		{
			"bufferView":81,
			"componentType":5126,
			"count":135,
			"type":"VEC3"
		},
		{
			"bufferView":82,
			"componentType":5126,
			"count":135,
			"type":"VEC2"
		},
		{
			"bufferView":83,
			"componentType":5123,
			"count":528,
			"type":"SCALAR"
		},
		{
			"bufferView":84,
			"componentType":5126,
			"count":36,
			"max":[
				5.572235107421875,
				2.8465158939361572,
				2.3632802963256836
			],
			"min":[
				-6.117546081542969,
				0,
				-2.635936737060547
			],
			"type":"VEC3"
		},
		{
			"bufferView":85,
			"componentType":5126,
			"count":36,
			"type":"VEC3"
		},
		{
			"bufferView":86,
			"componentType":5126,
			"count":36,
			"type":"VEC2"
		},
		{
			"bufferView":87,
			"componentType":5123,
			"count":60,
			"type":"SCALAR"
		},
		{
			"bufferView":88,
			"componentType":5126,
			"count":98,
			"max":[
				12.853225708007812,
				27,
				39.385616302490234
			],
			"min":[
				-8.827865600585938,
				0,
				-10.422930717468262
			],
			"type":"VEC3"
		},
		{
			"bufferView":89,
			"componentType":5126,
			"count":98,
			"type":"VEC3"
		},
		{
			"bufferView":90,
			"componentType":5126,
			"count":98,
			"type":"VEC2"
		},
		{
			"bufferView":91,
			"componentType":5123,
			"count":198,
			"type":"SCALAR"
		},
		{
			"bufferView":92,
			"componentType":5126,
			"count":308,
			"max":[
				57.90696334838867,
				29.02610969543457,
				9.87722396850586
			],
			"min":[
				-51.76915740966797,
				0,
				0
			],
			"type":"VEC3"
		},
		{
			"bufferView":93,
			"componentType":5126,
			"count":308,
			"type":"VEC3"
		},
		{
			"bufferView":94,
			"componentType":5126,
			"count":308,
			"type":"VEC2"
		},
		{
			"bufferView":95,
			"componentType":5123,
			"count":606,
			"type":"SCALAR"
		},
		{
			"bufferView":96,
			"componentType":5126,
			"count":24,
			"max":[
				4.115015029907227,
				5.440582275390625,
				4.580687046051025
			],
			"min":[
				-4.105823040008545,
				0,
				-3.324899673461914
			],
			"type":"VEC3"
		},
		{
			"bufferView":97,
			"componentType":5126,
			"count":24,
			"type":"VEC3"
		},
		{
			"bufferView":98,
			"componentType":5126,
			"count":24,
			"type":"VEC2"
		},
		{
			"bufferView":99,
			"componentType":5126,
			"count":24,
			"max":[
				2.60894775390625,
				3.469318389892578,
				2.751514434814453
			],
			"min":[
				-1,
				0,
				-1.7942924499511719
			],
			"type":"VEC3"
		},
		{
			"bufferView":100,
			"componentType":5126,
			"count":24,
			"type":"VEC3"
		},
		{
			"bufferView":101,
			"componentType":5126,
			"count":24,
			"type":"VEC2"
		},
		{
			"bufferView":102,
			"componentType":5126,
			"count":24,
			"max":[
				5.124090194702148,
				3.625528335571289,
				1
			],
			"min":[
				-1,
				0,
				-3.0083820819854736
			],
			"type":"VEC3"
		},
		{
			"bufferView":103,
			"componentType":5126,
			"count":24,
			"type":"VEC3"
		},
		{
			"bufferView":104,
			"componentType":5126,
			"count":24,
			"type":"VEC2"
		},
		{
			"bufferView":105,
			"componentType":5126,
			"count":24,
			"max":[
				5.124090194702148,
				3.625528335571289,
				1
			],
			"min":[
				-1,
				0,
				-3.0083820819854736
			],
			"type":"VEC3"
		},
		{
			"bufferView":106,
			"componentType":5126,
			"count":24,
			"type":"VEC3"
		},
		{
			"bufferView":107,
			"componentType":5126,
			"count":24,
			"type":"VEC2"
		},
		{
			"bufferView":108,
			"componentType":5126,
			"count":69,
			"max":[
				0.9809850454330444,
				0.3751351237297058,
				1.4587863683700562
			],
			"min":[
				-0.9809879660606384,
				-0.3751351237297058,
				-1.075656771659851
			],
			"type":"VEC3"
		},
		{
			"bufferView":109,
			"componentType":5126,
			"count":69,
			"type":"VEC3"
		},
		{
			"bufferView":110,
			"componentType":5126,
			"count":69,
			"type":"VEC2"
		},
		{
			"bufferView":111,
			"componentType":5126,
			"count":344,
			"max":[
				63.130313873291016,
				27,
				12.839582443237305
			],
			"min":[
				-27.005996704101562,
				-1.3747245247941464e-05,
				-58.90595245361328
			],
			"type":"VEC3"
		},
		{
			"bufferView":112,
			"componentType":5126,
			"count":344,
			"type":"VEC3"
		},
		{
			"bufferView":113,
			"componentType":5126,
			"count":344,
			"type":"VEC2"
		},
		{
			"bufferView":114,
			"componentType":5123,
			"count":684,
			"type":"SCALAR"
		},
		{
			"bufferView":115,
			"componentType":5126,
			"count":92,
			"max":[
				6.6836700439453125,
				15,
				38.094356536865234
			],
			"min":[
				-15.676606178283691,
				0,
				-31.33057403564453
			],
			"type":"VEC3"
		},
		{
			"bufferView":116,
			"componentType":5126,
			"count":92,
			"type":"VEC3"
		},
		{
			"bufferView":117,
			"componentType":5126,
			"count":92,
			"type":"VEC2"
		},
		{
			"bufferView":118,
			"componentType":5123,
			"count":168,
			"type":"SCALAR"
		},
		{
			"bufferView":119,
			"componentType":5126,
			"count":24,
			"max":[
				5.952164649963379,
				5,
				11.152329444885254
			],
			"min":[
				-2.8994922637939453,
				0,
				-4.045699119567871
			],
			"type":"VEC3"
		},
		{
			"bufferView":120,
			"componentType":5126,
			"count":24,
			"type":"VEC3"
		},
		{
			"bufferView":121,
			"componentType":5126,
			"count":24,
			"type":"VEC2"
		},
		{
			"bufferView":122,
			"componentType":5126,
			"count":24,
			"max":[
				3.055328369140625,
				5.000001907348633,
				10.689393997192383
			],
			"min":[
				-3.583831787109375,
				0,
				-10.160881996154785
			],
			"type":"VEC3"
		},
		{
			"bufferView":123,
			"componentType":5126,
			"count":24,
			"type":"VEC3"
		},
		{
			"bufferView":124,
			"componentType":5126,
			"count":24,
			"type":"VEC2"
		},
		{
			"bufferView":125,
			"componentType":5126,
			"count":48,
			"max":[
				14.419193267822266,
				11.753159523010254,
				4.711690425872803
			],
			"min":[
				-18.473506927490234,
				0,
				-8.623241424560547
			],
			"type":"VEC3"
		},
		{
			"bufferView":126,
			"componentType":5126,
			"count":48,
			"type":"VEC3"
		},
		{
			"bufferView":127,
			"componentType":5126,
			"count":48,
			"type":"VEC2"
		},
		{
			"bufferView":128,
			"componentType":5123,
			"count":84,
			"type":"SCALAR"
		},
		{
			"bufferView":129,
			"componentType":5126,
			"count":24,
			"max":[
				5.695026874542236,
				4,
				5.212538242340088
			],
			"min":[
				-1.835087537765503,
				0,
				-1.501047134399414
			],
			"type":"VEC3"
		},
		{
			"bufferView":130,
			"componentType":5126,
			"count":24,
			"type":"VEC3"
		},
		{
			"bufferView":131,
			"componentType":5126,
			"count":24,
			"type":"VEC2"
		},
		{
			"bufferView":132,
			"componentType":5126,
			"count":190,
			"max":[
				36,
				25.0000057220459,
				6
			],
			"min":[
				-36,
				0,
				-14.937675476074219
			],
			"type":"VEC3"
		},
		{
			"bufferView":133,
			"componentType":5126,
			"count":190,
			"type":"VEC3"
		},
		{
			"bufferView":134,
			"componentType":5126,
			"count":190,
			"type":"VEC2"
		},
		{
			"bufferView":135,
			"componentType":5123,
			"count":360,
			"type":"SCALAR"
		},
		{
			"bufferView":136,
			"componentType":5126,
			"count":24,
			"max":[
				4.030426025390625,
				7,
				7.712974548339844
			],
			"min":[
				-3.3015899658203125,
				0,
				-8.134933471679688
			],
			"type":"VEC3"
		},
		{
			"bufferView":137,
			"componentType":5126,
			"count":24,
			"type":"VEC3"
		},
		{
			"bufferView":138,
			"componentType":5126,
			"count":24,
			"type":"VEC2"
		},
		{
			"bufferView":139,
			"componentType":5126,
			"count":24,
			"max":[
				2.5002288818359375,
				5,
				4.721714019775391
			],
			"min":[
				-2.6444778442382812,
				0,
				-4.548610687255859
			],
			"type":"VEC3"
		},
		{
			"bufferView":140,
			"componentType":5126,
			"count":24,
			"type":"VEC3"
		},
		{
			"bufferView":141,
			"componentType":5126,
			"count":24,
			"type":"VEC2"
		},
		{
			"bufferView":142,
			"componentType":5126,
			"count":36,
			"max":[
				6.584141254425049,
				7,
				3.7609119415283203
			],
			"min":[
				-3.5464706420898438,
				0,
				-16.403295516967773
			],
			"type":"VEC3"
		},
		{
			"bufferView":143,
			"componentType":5126,
			"count":36,
			"type":"VEC3"
		},
		{
			"bufferView":144,
			"componentType":5126,
			"count":36,
			"type":"VEC2"
		},
		{
			"bufferView":145,
			"componentType":5123,
			"count":60,
			"type":"SCALAR"
		},
		{
			"bufferView":146,
			"componentType":5126,
			"count":132,
			"max":[
				16.14354705810547,
				12,
				29.333526611328125
			],
			"min":[
				-17.303693771362305,
				-1,
				-18.650611877441406
			],
			"type":"VEC3"
		},
		{
			"bufferView":147,
			"componentType":5126,
			"count":132,
			"type":"VEC3"
		},
		{
			"bufferView":148,
			"componentType":5126,
			"count":132,
			"type":"VEC2"
		},
		{
			"bufferView":149,
			"componentType":5123,
			"count":258,
			"type":"SCALAR"
		}
	],
	"bufferViews":[
		{
			"buffer":0,
			"byteLength":1572,
			"byteOffset":0,
			"target":34962
		},
		{
			"buffer":0,
			"byteLength":1572,
			"byteOffset":1572,
			"target":34962
		},
		{
			"buffer":0,
			"byteLength":1048,
			"byteOffset":3144,
			"target":34962
		},
		{
			"buffer":0,
			"byteLength":456,
			"byteOffset":4192,
			"target":34963
		},
		{
			"buffer":0,
			"byteLength":948,
			"byteOffset":4648,
			"target":34962
		},
		{
			"buffer":0,
			"byteLength":948,
			"byteOffset":5596,
			"target":34962
		},
		{
			"buffer":0,
			"byteLength":632,
			"byteOffset":6544,
			"target":34962
		},
		{
			"buffer":0,
			"byteLength":282,
			"byteOffset":7176,
			"target":34963
		},
		{
			"buffer":0,
			"byteLength":288,
			"byteOffset":7460,
			"target":34962
		},
		{
			"buffer":0,
			"byteLength":288,
			"byteOffset":7748,
			"target":34962
		},
		{
			"buffer":0,
			"byteLength":192,
			"byteOffset":8036,
			"target":34962
		},
		{
			"buffer":0,
			"byteLength":72,
			"byteOffset":8228,
			"target":34963
		},
		{
			"buffer":0,
			"byteLength":288,
			"byteOffset":8300,
			"target":34962
		},
		{
			"buffer":0,
			"byteLength":288,
			"byteOffset":8588,
			"target":34962
		},
		{
			"buffer":0,
			"byteLength":192,
			"byteOffset":8876,
			"target":34962
		},
		{
			"buffer":0,
			"byteLength":576,
			"byteOffset":9068,
			"target":34962
		},
		{
			"buffer":0,
			"byteLength":576,
			"byteOffset":9644,
			"target":34962
		},
		{
			"buffer":0,
			"byteLength":384,
			"byteOffset":10220,
			"target":34962
		},
		{
			"buffer":0,
			"byteLength":168,
			"byteOffset":10604,
			"target":34963
		},
		{
			"buffer":0,
			"byteLength":264,
			"byteOffset":10772,
			"target":34962
		},
		{
			"buffer":0,
			"byteLength":264,
			"byteOffset":11036,
			"target":34962
		},
		{
			"buffer":0,
			"byteLength":176,
			"byteOffset":11300,
			"target":34962
		},
		{
			"buffer":0,
			"byteLength":120,
			"byteOffset":11476,
			"target":34963
		},
		{
			"buffer":0,
			"byteLength":288,
			"byteOffset":11596,
			"target":34962
		},
		{
			"buffer":0,
			"byteLength":288,
			"byteOffset":11884,
			"target":34962
		},
		{
			"buffer":0,
			"byteLength":192,
			"byteOffset":12172,
			"target":34962
		},
		{
			"buffer":0,
			"byteLength":1248,
			"byteOffset":12364,
			"target":34962
		},
		{
			"buffer":0,
			"byteLength":1248,
			"byteOffset":13612,
			"target":34962
		},
		{
			"buffer":0,
			"byteLength":832,
			"byteOffset":14860,
			"target":34962
		},
		{
			"buffer":0,
			"byteLength":384,
			"byteOffset":15692,
			"target":34963
		},
		{
			"buffer":0,
			"byteLength":1896,
			"byteOffset":16076,
			"target":34962
		},
		{
			"buffer":0,
			"byteLength":1896,
			"byteOffset":17972,
			"target":34962
		},
		{
			"buffer":0,
			"byteLength":1264,
			"byteOffset":19868,
			"target":34962
		},
		{
			"buffer":0,
			"byteLength":684,
			"byteOffset":21132,
			"target":34963
		},
		{
			"buffer":0,
			"byteLength":288,
			"byteOffset":21816,
			"target":34962
		},
		{
			"buffer":0,
			"byteLength":288,
			"byteOffset":22104,
			"target":34962
		},
		{
			"buffer":0,
			"byteLength":192,
			"byteOffset":22392,
			"target":34962
		},
		{
			"buffer":0,
			"byteLength":288,
			"byteOffset":22584,
			"target":34962
		},
		{
			"buffer":0,
			"byteLength":288,
			"byteOffset":22872,
			"target":34962
		},
		{
			"buffer":0,
			"byteLength":192,
			"byteOffset":23160,
			"target":34962
		},
		{
			"buffer":0,
			"byteLength":672,
			"byteOffset":23352,
			"target":34962
		},
		{
			"buffer":0,
			"byteLength":672,
			"byteOffset":24024,
			"target":34962
		},
		{
			"buffer":0,
			"byteLength":448,
			"byteOffset":24696,
			"target":34962
		},
		{
			"buffer":0,
			"byteLength":216,
			"byteOffset":25144,
			"target":34963
		},
		{
			"buffer":0,
			"byteLength":288,
			"byteOffset":25360,
			"target":34962
		},
		{
			"buffer":0,
			"byteLength":288,
			"byteOffset":25648,
			"target":34962
		},
		{
			"buffer":0,
			"byteLength":192,
			"byteOffset":25936,
			"target":34962
		},
		{
			"buffer":0,
			"byteLength":624,
			"byteOffset":26128,
			"target":34962
		},
		{
			"buffer":0,
			"byteLength":624,
			"byteOffset":26752,
			"target":34962
		},
		{
			"buffer":0,
			"byteLength":416,
			"byteOffset":27376,
			"target":34962
		},
		{
			"buffer":0,
			"byteLength":204,
			"byteOffset":27792,
			"target":34963
		},
		{
			"buffer":0,
			"byteLength":7476,
			"byteOffset":27996,
			"target":34962
		},
		{
			"buffer":0,
			"byteLength":7476,
			"byteOffset":35472,
			"target":34962
		},
		{
			"buffer":0,
			"byteLength":4984,
			"byteOffset":42948,
			"target":34962
		},
		{
			"buffer":0,
			"byteLength":2892,
			"byteOffset":47932,
			"target":34963
		},
		{
			"buffer":0,
			"byteLength":864,
			"byteOffset":50824,
			"target":34962
		},
		{
			"buffer":0,
			"byteLength":864,
			"byteOffset":51688,
			"target":34962
		},
		{
			"buffer":0,
			"byteLength":576,
			"byteOffset":52552,
			"target":34962
		},
		{
			"buffer":0,
			"byteLength":276,
			"byteOffset":53128,
			"target":34963
		},
		{
			"buffer":0,
			"byteLength":828,
			"byteOffset":53404,
			"target":34962
		},
		{
			"buffer":0,
			"byteLength":828,
			"byteOffset":54232,
			"target":34962
		},
		{
			"buffer":0,
			"byteLength":552,
			"byteOffset":55060,
			"target":34962
		},
		{
			"buffer":0,
			"byteLength":828,
			"byteOffset":55612,
			"target":34963
		},
		{
			"buffer":0,
			"byteLength":828,
			"byteOffset":56440,
			"target":34962
		},
		{
			"buffer":0,
			"byteLength":828,
			"byteOffset":57268,
			"target":34962
		},
		{
			"buffer":0,
			"byteLength":552,
			"byteOffset":58096,
			"target":34962
		},
		{
			"buffer":0,
			"byteLength":828,
			"byteOffset":58648,
			"target":34962
		},
		{
			"buffer":0,
			"byteLength":828,
			"byteOffset":59476,
			"target":34962
		},
		{
			"buffer":0,
			"byteLength":552,
			"byteOffset":60304,
			"target":34962
		},
		{
			"buffer":0,
			"byteLength":828,
			"byteOffset":60856,
			"target":34962
		},
		{
			"buffer":0,
			"byteLength":828,
			"byteOffset":61684,
			"target":34962
		},
		{
			"buffer":0,
			"byteLength":552,
			"byteOffset":62512,
			"target":34962
		},
		{
			"buffer":0,
			"byteLength":2400,
			"byteOffset":63064,
			"target":34962
		},
		{
			"buffer":0,
			"byteLength":2400,
			"byteOffset":65464,
			"target":34962
		},
		{
			"buffer":0,
			"byteLength":1600,
			"byteOffset":67864,
			"target":34962
		},
		{
			"buffer":0,
			"byteLength":876,
			"byteOffset":69464,
			"target":34963
		},
		{
			"buffer":0,
			"byteLength":864,
			"byteOffset":70340,
			"target":34962
		},
		{
			"buffer":0,
			"byteLength":864,
			"byteOffset":71204,
			"target":34962
		},
		{
			"buffer":0,
			"byteLength":576,
			"byteOffset":72068,
			"target":34962
		},
		{
			"buffer":0,
			"byteLength":492,
			"byteOffset":72644,
			"target":34963
		},
		{
			"buffer":0,
			"byteLength":1620,
			"byteOffset":73136,
			"target":34962
		},
		{
			"buffer":0,
			"byteLength":1620,
			"byteOffset":74756,
			"target":34962
		},
		{
			"buffer":0,
			"byteLength":1080,
			"byteOffset":76376,
			"target":34962
		},
		{
			"buffer":0,
			"byteLength":1056,
			"byteOffset":77456,
			"target":34963
		},
		{
			"buffer":0,
			"byteLength":432,
			"byteOffset":78512,
			"target":34962
		},
		{
			"buffer":0,
			"byteLength":432,
			"byteOffset":78944,
			"target":34962
		},
		{
			"buffer":0,
			"byteLength":288,
			"byteOffset":79376,
			"target":34962
		},
		{
			"buffer":0,
			"byteLength":120,
			"byteOffset":79664,
			"target":34963
		},
		{
			"buffer":0,
			"byteLength":1176,
			"byteOffset":79784,
			"target":34962
		},
		{
			"buffer":0,
			"byteLength":1176,
			"byteOffset":80960,
			"target":34962
		},
		{
			"buffer":0,
			"byteLength":784,
			"byteOffset":82136,
			"target":34962
		},
		{
			"buffer":0,
			"byteLength":396,
			"byteOffset":82920,
			"target":34963
		},
		{
			"buffer":0,
			"byteLength":3696,
			"byteOffset":83316,
			"target":34962
		},
		{
			"buffer":0,
			"byteLength":3696,
			"byteOffset":87012,
			"target":34962
		},
		{
			"buffer":0,
			"byteLength":2464,
			"byteOffset":90708,
			"target":34962
		},
		{
			"buffer":0,
			"byteLength":1212,
			"byteOffset":93172,
			"target":34963
		},
		{
			"buffer":0,
			"byteLength":288,
			"byteOffset":94384,
			"target":34962
		},
		{
			"buffer":0,
			"byteLength":288,
			"byteOffset":94672,
			"target":34962
		},
		{
			"buffer":0,
			"byteLength":192,
			"byteOffset":94960,
			"target":34962
		},
		{
			"buffer":0,
			"byteLength":288,
			"byteOffset":95152,
			"target":34962
		},
		{
			"buffer":0,
			"byteLength":288,
			"byteOffset":95440,
			"target":34962
		},
		{
			"buffer":0,
			"byteLength":192,
			"byteOffset":95728,
			"target":34962
		},
		{
			"buffer":0,
			"byteLength":288,
			"byteOffset":95920,
			"target":34962
		},
		{
			"buffer":0,
			"byteLength":288,
			"byteOffset":96208,
			"target":34962
		},
		{
			"buffer":0,
			"byteLength":192,
			"byteOffset":96496,
			"target":34962
		},
		{
			"buffer":0,
			"byteLength":288,
			"byteOffset":96688,
			"target":34962
		},
		{
			"buffer":0,
			"byteLength":288,
			"byteOffset":96976,
			"target":34962
		},
		{
			"buffer":0,
			"byteLength":192,
			"byteOffset":97264,
			"target":34962
		},
		{
			"buffer":0,
			"byteLength":828,
			"byteOffset":97456,
			"target":34962
		},
		{
			"buffer":0,
			"byteLength":828,
			"byteOffset":98284,
			"target":34962
		},
		{
			"buffer":0,
			"byteLength":552,
			"byteOffset":99112,
			"target":34962
		},
		{
			"buffer":0,
			"byteLength":4128,
			"byteOffset":99664,
			"target":34962
		},
		{
			"buffer":0,
			"byteLength":4128,
			"byteOffset":103792,
			"target":34962
		},
		{
			"buffer":0,
			"byteLength":2752,
			"byteOffset":107920,
			"target":34962
		},
		{
			"buffer":0,
			"byteLength":1368,
			"byteOffset":110672,
			"target":34963
		},
		{
			"buffer":0,
			"byteLength":1104,
			"byteOffset":112040,
			"target":34962
		},
		{
			"buffer":0,
			"byteLength":1104,
			"byteOffset":113144,
			"target":34962
		},
		{
			"buffer":0,
			"byteLength":736,
			"byteOffset":114248,
			"target":34962
		},
		{
			"buffer":0,
			"byteLength":336,
			"byteOffset":114984,
			"target":34963
		},
		{
			"buffer":0,
			"byteLength":288,
			"byteOffset":115320,
			"target":34962
		},
		{
			"buffer":0,
			"byteLength":288,
			"byteOffset":115608,
			"target":34962
		},
		{
			"buffer":0,
			"byteLength":192,
			"byteOffset":115896,
			"target":34962
		},
		{
			"buffer":0,
			"byteLength":288,
			"byteOffset":116088,
			"target":34962
		},
		{
			"buffer":0,
			"byteLength":288,
			"byteOffset":116376,
			"target":34962
		},
		{
			"buffer":0,
			"byteLength":192,
			"byteOffset":116664,
			"target":34962
		},
		{
			"buffer":0,
			"byteLength":576,
			"byteOffset":116856,
			"target":34962
		},
		{
			"buffer":0,
			"byteLength":576,
			"byteOffset":117432,
			"target":34962
		},
		{
			"buffer":0,
			"byteLength":384,
			"byteOffset":118008,
			"target":34962
		},
		{
			"buffer":0,
			"byteLength":168,
			"byteOffset":118392,
			"target":34963
		},
		{
			"buffer":0,
			"byteLength":288,
			"byteOffset":118560,
			"target":34962
		},
		{
			"buffer":0,
			"byteLength":288,
			"byteOffset":118848,
			"target":34962
		},
		{
			"buffer":0,
			"byteLength":192,
			"byteOffset":119136,
			"target":34962
		},
		{
			"buffer":0,
			"byteLength":2280,
			"byteOffset":119328,
			"target":34962
		},
		{
			"buffer":0,
			"byteLength":2280,
			"byteOffset":121608,
			"target":34962
		},
		{
			"buffer":0,
			"byteLength":1520,
			"byteOffset":123888,
			"target":34962
		},
		{
			"buffer":0,
			"byteLength":720,
			"byteOffset":125408,
			"target":34963
		},
		{
			"buffer":0,
			"byteLength":288,
			"byteOffset":126128,
			"target":34962
		},
		{
			"buffer":0,
			"byteLength":288,
			"byteOffset":126416,
			"target":34962
		},
		{
			"buffer":0,
			"byteLength":192,
			"byteOffset":126704,
			"target":34962
		},
		{
			"buffer":0,
			"byteLength":288,
			"byteOffset":126896,
			"target":34962
		},
		{
			"buffer":0,
			"byteLength":288,
			"byteOffset":127184,
			"target":34962
		},
		{
			"buffer":0,
			"byteLength":192,
			"byteOffset":127472,
			"target":34962
		},
		{
			"buffer":0,
			"byteLength":432,
			"byteOffset":127664,
			"target":34962
		},
		{
			"buffer":0,
			"byteLength":432,
			"byteOffset":128096,
			"target":34962
		},
		{
			"buffer":0,
			"byteLength":288,
			"byteOffset":128528,
			"target":34962
		},
		{
			"buffer":0,
			"byteLength":120,
			"byteOffset":128816,
			"target":34963
		},
		{
			"buffer":0,
			"byteLength":1584,
			"byteOffset":128936,
			"target":34962
		},
		{
			"buffer":0,
			"byteLength":1584,
			"byteOffset":130520,
			"target":34962
		},
		{
			"buffer":0,
			"byteLength":1056,
			"byteOffset":132104,
			"target":34962
		},
		{
			"buffer":0,
			"byteLength":516,
			"byteOffset":133160,
			"target":34963
		}
	],
	"buffers":[
		{
			"byteLength":133676,
			"uri":"University_V3.bin"
		}
	]
}
