{
	"asset":{
		"generator":"Khronos glTF Blender I/O v4.5.48",
		"version":"2.0"
	},
	"scene":0,
	"scenes":[
		{
			"name":"Scene",
			"nodes":[
				0,
				1,
				2,
				3,
				4,
				5,
				6,
				7,
				8,
				9,
				10,
				11,
				12,
				13,
				14,
				15,
				16
			]
		}
	],
	"nodes":[
		{
			"mesh":0,
			"name":"\u0413\u0410\u041a",
			"rotation":[
				0,
				0.7071068286895752,
				0,
				0.7071068286895752
			],
			"scale":[
				1,
				1,
				1.9741235971450806
			]
		},
		{
			"name":"\u041a\u0430\u0440\u0442\u0430_2",
			"rotation":[
				0,
				0.2776229977607727,
				0,
				0.9606902003288269
			],
			"scale":[
				150,
				150,
				150
			],
			"translation":[
				107.90933990478516,
				0,
				34.17580795288086
			]
		},
		{
			"mesh":1,
			"name":"\u041f\u043b\u043e\u0449\u0430\u0434\u043a\u0430",
			"scale":[
				40,
				40,
				40
			]
		},
		{
			"mesh":2,
			"name":"\u0417\u0434\u0430\u043d\u0438\u0435_1",
			"translation":[
				-28.335329055786133,
				0,
				10.961641311645508
			]
		},
		{
			"mesh":3,
			"name":"\u041a\u043e\u0440\u043f\u0443\u0441_10",
			"translation":[
				-60.3416633605957,
				0,
				24.439016342163086
			]
		},
		{
			"mesh":4,
			"name":"\u0417\u0434\u0430\u043d\u0438\u0435_4",
			"translation":[
				-59.348045349121094,
				0,
				6.347761154174805
			]
		},
		{
			"mesh":5,
			"name":"\u041a\u043e\u0440\u043f\u0443\u0441_16",
			"scale":[
				5.55804967880249,
				5.55804967880249,
				5.55804967880249
			],
			"translation":[
				-58.33898162841797,
				0,
				-8.248005867004395
			]
		},
		{
			"mesh":6,
			"name":"\u041a\u043e\u0440\u043f\u0443\u0441_3_\u0412\u0445\u043e\u0434",
			"scale":[
				4.695207595825195,
				1,
				3.372742176055908
			],
			"translation":[
				12.023113250732422,
				0,
				56.97154235839844
			]
		},
		{
			"mesh":7,
			"name":"\u041a\u043e\u0440\u043f\u0443\u0441_3",
			"scale":[
				2.896559476852417,
				2.896559476852417,
				2.896559476852417
			],
			"translation":[
				10.771743774414062,
				0,
				66.68840026855469
			]
		},
		{
			"mesh":8,
			"name":"\u0414\u041a",
			"scale":[
				9.632989883422852,
				9.632989883422852,
				10.302979469299316
			],
			"translation":[
				-11.975610733032227,
				0,
				102.45494842529297
			]
		},
		{
			"mesh":9,
			"name":"\u0417\u0434\u0430\u043d\u0438\u0435_2",
			"scale":[
				3.3541462421417236,
				3.3541462421417236,
				3.3541462421417236
			],
			"translation":[
				-12.45480728149414,
				0,
				76.20132446289062
			]
		},
		{
			"mesh":10,
			"name":"\u0417\u0434\u0430\u043d\u0438\u0435_3",
			"rotation":[
				0,
				0.7071068286895752,
				0,
				0.7071068286895752
			],
			"scale":[
				3.3541462421417236,
				3.3541462421417236,
				3.3541462421417236
			],
			"translation":[
				42.58370590209961,
				0,
				88.76958465576172
			]
		},
		{
			"mesh":11,
			"name":"\u041a\u043e\u0440\u043f\u0443\u0441_57\u0413",
			"scale":[
				2.7236223220825195,
				2.7236223220825195,
				2.7236223220825195
			],
			"translation":[
				66.35236358642578,
				0,
				86.2847900390625
			]
		},
		{
			"mesh":12,
			"name":"\u041a\u043e\u0440\u0443\u0441_9",
			"scale":[
				3.487262725830078,
				3.487262725830078,
				3.487262725830078
			],
			"translation":[
				-55.72214889526367,
				0,
				49.07954025268555
			]
		},
		{
			"mesh":13,
			"name":"\u041a\u043e\u0440\u043f\u0443\u0441_35",
			"scale":[
				5.450614929199219,
				5.450614929199219,
				5.450614929199219
			],
			"translation":[
				-61.25853729248047,
				-3.814697265625e-06,
				72.92874145507812
			]
		},
		{
			"mesh":14,
			"name":"\u041a\u043e\u0440\u043f\u0443\u0441_24",
			"scale":[
				7.345019817352295,
				7.345019817352295,
				7.345019817352295
			],
			"translation":[
				-59.71568298339844,
				-3.814697265625e-06,
				-32.75757598876953
			]
		},
		{
			"name":"\u041a\u0430\u0440\u0442\u0430_1",
			"rotation":[
				0,
				0.2748267352581024,
				0,
				0.9614937901496887
			],
			"scale":[
				97.13774108886719,
				97.13774108886719,
				97.13774108886719
			],
			"translation":[
				-131.1901397705078,
				0,
				-21.42218780517578
			]
		}
	],
	"meshes":[
		{
			"name":"Cube.002",
			"primitives":[
				{
					"attributes":{
						"POSITION":0,
						"NORMAL":1,
						"TEXCOORD_0":2
					},
					"indices":3
				}
			]
		},
		{
			"name":"Plane",
			"primitives":[
				{
					"attributes":{
						"POSITION":4,
						"NORMAL":5,
						"TEXCOORD_0":6
					},
					"indices":7
				}
			]
		},
		{
			"name":"Cube.003",
			"primitives":[
				{
					"attributes":{
						"POSITION":8,
						"NORMAL":9,
						"TEXCOORD_0":10
					},
					"indices":11
				}
			]
		},
		{
			"name":"Cube.004",
			"primitives":[
				{
					"attributes":{
						"POSITION":12,
						"NORMAL":13,
						"TEXCOORD_0":14
					},
					"indices":11
				}
			]
		},
		{
			"name":"Cube.005",
			"primitives":[
				{
					"attributes":{
						"POSITION":15,
						"NORMAL":16,
						"TEXCOORD_0":17
					},
					"indices":18
				}
			]
		},
		{
			"name":"Cube.006",
			"primitives":[
				{
					"attributes":{
						"POSITION":19,
						"NORMAL":20,
						"TEXCOORD_0":21
					},
					"indices":22
				}
			]
		},
		{
			"name":"Cube.007",
			"primitives":[
				{
					"attributes":{
						"POSITION":23,
						"NORMAL":24,
						"TEXCOORD_0":25
					},
					"indices":11
				}
			]
		},
		{
			"name":"Cube.008",
			"primitives":[
				{
					"attributes":{
						"POSITION":26,
						"NORMAL":27,
						"TEXCOORD_0":28
					},
					"indices":29
				}
			]
		},
		{
			"name":"Cube.009",
			"primitives":[
				{
					"attributes":{
						"POSITION":30,
						"NORMAL":31,
						"TEXCOORD_0":32
					},
					"indices":33
				}
			]
		},
		{
			"name":"Cube.010",
			"primitives":[
				{
					"attributes":{
						"POSITION":34,
						"NORMAL":35,
						"TEXCOORD_0":36
					},
					"indices":11
				}
			]
		},
		{
			"name":"Cube.011",
			"primitives":[
				{
					"attributes":{
						"POSITION":37,
						"NORMAL":38,
						"TEXCOORD_0":39
					},
					"indices":11
				}
			]
		},
		{
			"name":"Cube.012",
			"primitives":[
				{
					"attributes":{
						"POSITION":40,
						"NORMAL":41,
						"TEXCOORD_0":42
					},
					"indices":43
				}
			]
		},
		{
			"name":"Cube.013",
			"primitives":[
				{
					"attributes":{
						"POSITION":44,
						"NORMAL":45,
						"TEXCOORD_0":46
					},
					"indices":11
				}
			]
		},
		{
			"name":"Cube.014",
			"primitives":[
				{
					"attributes":{
						"POSITION":47,
						"NORMAL":48,
						"TEXCOORD_0":49
					},
					"indices":50
				}
			]
		},
		{
			"name":"Cube.015",
			"primitives":[
				{
					"attributes":{
						"POSITION":51,
						"NORMAL":52,
						"TEXCOORD_0":53
					},
					"indices":54
				}
			]
		}
	],
	"accessors":[
		{
			"bufferView":0,
			"componentType":5126,
			"count":131,
			"max":[
				38.165138244628906,
				22.9999942779541,
				18.57129669189453
			],
			"min":[
				14.788703918457031,
				0,
				-18.349123001098633
			],
			"type":"VEC3"
		},
		{
			"bufferView":1,
			"componentType":5126,
			"count":131,
			"type":"VEC3"
		},
		{
			"bufferView":2,
			"componentType":5126,
			"count":131,
			"type":"VEC2"
		},
		{
			"bufferView":3,
			"componentType":5123,
			"count":228,
			"type":"SCALAR"
		},
		{
			"bufferView":4,
			"componentType":5126,
			"count":4,
			"max":[
				2.3443567752838135,
				0,
				2.968808650970459
			],
			"min":[
				-5.081947326660156,
				0,
				-1.3736052513122559
			],
			"type":"VEC3"
		},
		{
			"bufferView":5,
			"componentType":5126,
			"count":4,
			"type":"VEC3"
		},
		{
			"bufferView":6,
			"componentType":5126,
			"count":4,
			"type":"VEC2"
		},
		{
			"bufferView":7,
			"componentType":5123,
			"count":6,
			"type":"SCALAR"
		},
		{
			"bufferView":8,
			"componentType":5126,
			"count":24,
			"max":[
				3.5624465942382812,
				4.130319595336914,
				1.888589859008789
			],
			"min":[
				-3.769092559814453,
				0,
				-2.2812232971191406
			],
			"type":"VEC3"
		},
		{
			"bufferView":9,
			"componentType":5126,
			"count":24,
			"type":"VEC3"
		},
		{
			"bufferView":10,
			"componentType":5126,
			"count":24,
			"type":"VEC2"
		},
		{
			"bufferView":11,
			"componentType":5123,
			"count":36,
			"type":"SCALAR"
		},
		{
			"bufferView":12,
			"componentType":5126,
			"count":24,
			"max":[
				9.54666519165039,
				20,
				11.870016098022461
			],
			"min":[
				-9.463672637939453,
				0,
				-11.439016342163086
			],
			"type":"VEC3"
		},
		{
			"bufferView":13,
			"componentType":5126,
			"count":24,
			"type":"VEC3"
		},
		{
			"bufferView":14,
			"componentType":5126,
			"count":24,
			"type":"VEC2"
		},
		{
			"bufferView":15,
			"componentType":5126,
			"count":48,
			"max":[
				5.243511199951172,
				17.201139450073242,
				6.652238845825195
			],
			"min":[
				-5.1884002685546875,
				0,
				-6.347761154174805
			],
			"type":"VEC3"
		},
		{
			"bufferView":16,
			"componentType":5126,
			"count":48,
			"type":"VEC3"
		},
		{
			"bufferView":17,
			"componentType":5126,
			"count":48,
			"type":"VEC2"
		},
		{
			"bufferView":18,
			"componentType":5123,
			"count":84,
			"type":"SCALAR"
		},
		{
			"bufferView":19,
			"componentType":5126,
			"count":36,
			"max":[
				1,
				1.4612245559692383,
				1.483974814414978
			],
			"min":[
				-0.8936128616333008,
				0,
				-1.7872639894485474
			],
			"type":"VEC3"
		},
		{
			"bufferView":20,
			"componentType":5126,
			"count":36,
			"type":"VEC3"
		},
		{
			"bufferView":21,
			"componentType":5126,
			"count":36,
			"type":"VEC2"
		},
		{
			"bufferView":22,
			"componentType":5123,
			"count":60,
			"type":"SCALAR"
		},
		{
			"bufferView":23,
			"componentType":5126,
			"count":24,
			"max":[
				1.000000238418579,
				7.27703857421875,
				1.194417953491211
			],
			"min":[
				-1,
				0,
				-1.0292930603027344
			],
			"type":"VEC3"
		},
		{
			"bufferView":24,
			"componentType":5126,
			"count":24,
			"type":"VEC3"
		},
		{
			"bufferView":25,
			"componentType":5126,
			"count":24,
			"type":"VEC2"
		},
		{
			"bufferView":26,
			"componentType":5126,
			"count":104,
			"max":[
				17.340662002563477,
				7.940454959869385,
				9.083741188049316
			],
			"min":[
				-16.181379318237305,
				0,
				-6.993845462799072
			],
			"type":"VEC3"
		},
		{
			"bufferView":27,
			"componentType":5126,
			"count":104,
			"type":"VEC3"
		},
		{
			"bufferView":28,
			"componentType":5126,
			"count":104,
			"type":"VEC2"
		},
		{
			"bufferView":29,
			"componentType":5123,
			"count":192,
			"type":"SCALAR"
		},
		{
			"bufferView":30,
			"componentType":5126,
			"count":158,
			"max":[
				2.9627883434295654,
				2.7495880126953125,
				1
			],
			"min":[
				-2.5883045196533203,
				0,
				-2.179462194442749
			],
			"type":"VEC3"
		},
		{
			"bufferView":31,
			"componentType":5126,
			"count":158,
			"type":"VEC3"
		},
		{
			"bufferView":32,
			"componentType":5126,
			"count":158,
			"type":"VEC2"
		},
		{
			"bufferView":33,
			"componentType":5123,
			"count":342,
			"type":"SCALAR"
		},
		{
			"bufferView":34,
			"componentType":5126,
			"count":24,
			"max":[
				2.9650919437408447,
				2,
				1
			],
			"min":[
				-1.620002031326294,
				0,
				-1
			],
			"type":"VEC3"
		},
		{
			"bufferView":35,
			"componentType":5126,
			"count":24,
			"type":"VEC3"
		},
		{
			"bufferView":36,
			"componentType":5126,
			"count":24,
			"type":"VEC2"
		},
		{
			"bufferView":37,
			"componentType":5126,
			"count":24,
			"max":[
				2.9650919437408447,
				2,
				1
			],
			"min":[
				-1.620002031326294,
				0,
				-1
			],
			"type":"VEC3"
		},
		{
			"bufferView":38,
			"componentType":5126,
			"count":24,
			"type":"VEC3"
		},
		{
			"bufferView":39,
			"componentType":5126,
			"count":24,
			"type":"VEC2"
		},
		{
			"bufferView":40,
			"componentType":5126,
			"count":56,
			"max":[
				7.110471248626709,
				8.444637298583984,
				1.960860013961792
			],
			"min":[
				-1.9651641845703125,
				0,
				-1.5254703760147095
			],
			"type":"VEC3"
		},
		{
			"bufferView":41,
			"componentType":5126,
			"count":56,
			"type":"VEC3"
		},
		{
			"bufferView":42,
			"componentType":5126,
			"count":56,
			"type":"VEC2"
		},
		{
			"bufferView":43,
			"componentType":5123,
			"count":108,
			"type":"SCALAR"
		},
		{
			"bufferView":44,
			"componentType":5126,
			"count":24,
			"max":[
				1,
				5.735157489776611,
				1
			],
			"min":[
				-5.113738536834717,
				0,
				-1
			],
			"type":"VEC3"
		},
		{
			"bufferView":45,
			"componentType":5126,
			"count":24,
			"type":"VEC3"
		},
		{
			"bufferView":46,
			"componentType":5126,
			"count":24,
			"type":"VEC2"
		},
		{
			"bufferView":47,
			"componentType":5126,
			"count":52,
			"max":[
				1.541234016418457,
				2,
				1.5141730308532715
			],
			"min":[
				-1.3427815437316895,
				0,
				-2.5064353942871094
			],
			"type":"VEC3"
		},
		{
			"bufferView":48,
			"componentType":5126,
			"count":52,
			"type":"VEC3"
		},
		{
			"bufferView":49,
			"componentType":5126,
			"count":52,
			"type":"VEC2"
		},
		{
			"bufferView":50,
			"componentType":5123,
			"count":102,
			"type":"SCALAR"
		},
		{
			"bufferView":51,
			"componentType":5126,
			"count":216,
			"max":[
				1,
				4.798961162567139,
				12.787822723388672
			],
			"min":[
				-17.522396087646484,
				0,
				-1.9914119243621826
			],
			"type":"VEC3"
		},
		{
			"bufferView":52,
			"componentType":5126,
			"count":216,
			"type":"VEC3"
		},
		{
			"bufferView":53,
			"componentType":5126,
			"count":216,
			"type":"VEC2"
		},
		{
			"bufferView":54,
			"componentType":5123,
			"count":432,
			"type":"SCALAR"
		}
	],
	"bufferViews":[
		{
			"buffer":0,
			"byteLength":1572,
			"byteOffset":0,
			"target":34962
		},
		{
			"buffer":0,
			"byteLength":1572,
			"byteOffset":1572,
			"target":34962
		},
		{
			"buffer":0,
			"byteLength":1048,
			"byteOffset":3144,
			"target":34962
		},
		{
			"buffer":0,
			"byteLength":456,
			"byteOffset":4192,
			"target":34963
		},
		{
			"buffer":0,
			"byteLength":48,
			"byteOffset":4648,
			"target":34962
		},
		{
			"buffer":0,
			"byteLength":48,
			"byteOffset":4696,
			"target":34962
		},
		{
			"buffer":0,
			"byteLength":32,
			"byteOffset":4744,
			"target":34962
		},
		{
			"buffer":0,
			"byteLength":12,
			"byteOffset":4776,
			"target":34963
		},
		{
			"buffer":0,
			"byteLength":288,
			"byteOffset":4788,
			"target":34962
		},
		{
			"buffer":0,
			"byteLength":288,
			"byteOffset":5076,
			"target":34962
		},
		{
			"buffer":0,
			"byteLength":192,
			"byteOffset":5364,
			"target":34962
		},
		{
			"buffer":0,
			"byteLength":72,
			"byteOffset":5556,
			"target":34963
		},
		{
			"buffer":0,
			"byteLength":288,
			"byteOffset":5628,
			"target":34962
		},
		{
			"buffer":0,
			"byteLength":288,
			"byteOffset":5916,
			"target":34962
		},
		{
			"buffer":0,
			"byteLength":192,
			"byteOffset":6204,
			"target":34962
		},
		{
			"buffer":0,
			"byteLength":576,
			"byteOffset":6396,
			"target":34962
		},
		{
			"buffer":0,
			"byteLength":576,
			"byteOffset":6972,
			"target":34962
		},
		{
			"buffer":0,
			"byteLength":384,
			"byteOffset":7548,
			"target":34962
		},
		{
			"buffer":0,
			"byteLength":168,
			"byteOffset":7932,
			"target":34963
		},
		{
			"buffer":0,
			"byteLength":432,
			"byteOffset":8100,
			"target":34962
		},
		{
			"buffer":0,
			"byteLength":432,
			"byteOffset":8532,
			"target":34962
		},
		{
			"buffer":0,
			"byteLength":288,
			"byteOffset":8964,
			"target":34962
		},
		{
			"buffer":0,
			"byteLength":120,
			"byteOffset":9252,
			"target":34963
		},
		{
			"buffer":0,
			"byteLength":288,
			"byteOffset":9372,
			"target":34962
		},
		{
			"buffer":0,
			"byteLength":288,
			"byteOffset":9660,
			"target":34962
		},
		{
			"buffer":0,
			"byteLength":192,
			"byteOffset":9948,
			"target":34962
		},
		{
			"buffer":0,
			"byteLength":1248,
			"byteOffset":10140,
			"target":34962
		},
		{
			"buffer":0,
			"byteLength":1248,
			"byteOffset":11388,
			"target":34962
		},
		{
			"buffer":0,
			"byteLength":832,
			"byteOffset":12636,
			"target":34962
		},
		{
			"buffer":0,
			"byteLength":384,
			"byteOffset":13468,
			"target":34963
		},
		{
			"buffer":0,
			"byteLength":1896,
			"byteOffset":13852,
			"target":34962
		},
		{
			"buffer":0,
			"byteLength":1896,
			"byteOffset":15748,
			"target":34962
		},
		{
			"buffer":0,
			"byteLength":1264,
			"byteOffset":17644,
			"target":34962
		},
		{
			"buffer":0,
			"byteLength":684,
			"byteOffset":18908,
			"target":34963
		},
		{
			"buffer":0,
			"byteLength":288,
			"byteOffset":19592,
			"target":34962
		},
		{
			"buffer":0,
			"byteLength":288,
			"byteOffset":19880,
			"target":34962
		},
		{
			"buffer":0,
			"byteLength":192,
			"byteOffset":20168,
			"target":34962
		},
		{
			"buffer":0,
			"byteLength":288,
			"byteOffset":20360,
			"target":34962
		},
		{
			"buffer":0,
			"byteLength":288,
			"byteOffset":20648,
			"target":34962
		},
		{
			"buffer":0,
			"byteLength":192,
			"byteOffset":20936,
			"target":34962
		},
		{
			"buffer":0,
			"byteLength":672,
			"byteOffset":21128,
			"target":34962
		},
		{
			"buffer":0,
			"byteLength":672,
			"byteOffset":21800,
			"target":34962
		},
		{
			"buffer":0,
			"byteLength":448,
			"byteOffset":22472,
			"target":34962
		},
		{
			"buffer":0,
			"byteLength":216,
			"byteOffset":22920,
			"target":34963
		},
		{
			"buffer":0,
			"byteLength":288,
			"byteOffset":23136,
			"target":34962
		},
		{
			"buffer":0,
			"byteLength":288,
			"byteOffset":23424,
			"target":34962
		},
		{
			"buffer":0,
			"byteLength":192,
			"byteOffset":23712,
			"target":34962
		},
		{
			"buffer":0,
			"byteLength":624,
			"byteOffset":23904,
			"target":34962
		},
		{
			"buffer":0,
			"byteLength":624,
			"byteOffset":24528,
			"target":34962
		},
		{
			"buffer":0,
			"byteLength":416,
			"byteOffset":25152,
			"target":34962
		},
		{
			"buffer":0,
			"byteLength":204,
			"byteOffset":25568,
			"target":34963
		},
		{
			"buffer":0,
			"byteLength":2592,
			"byteOffset":25772,
			"target":34962
		},
		{
			"buffer":0,
			"byteLength":2592,
			"byteOffset":28364,
			"target":34962
		},
		{
			"buffer":0,
			"byteLength":1728,
			"byteOffset":30956,
			"target":34962
		},
		{
			"buffer":0,
			"byteLength":864,
			"byteOffset":32684,
			"target":34963
		}
	],
	"buffers":[
		{
			"byteLength":33548,
			"uri":"University_V1.bin"
		}
	]
}
